<?xml version="1.0" encoding="utf-8"?>
<!-- Generator: Adobe Illustrator 16.0.0, SVG Export Plug-In . SVG Version: 6.00 Build 0)  -->
<!DOCTYPE svg PUBLIC "-//W3C//DTD SVG 1.1//EN" "http://www.w3.org/Graphics/SVG/1.1/DTD/svg11.dtd">
<svg version="1.1" id="Laag_1" xmlns="http://www.w3.org/2000/svg" xmlns:xlink="http://www.w3.org/1999/xlink" x="0px" y="0px"
	 width="595.28px" height="595.28px" viewBox="0 0 595.28 595.28" enable-background="new 0 0 595.28 595.28" xml:space="preserve">
<g id="XMLID_1_">
	<g>
		<path fill="#FFFFFF" d="M423.7,267.03c0,4.22-0.62,8.3-1.78,12.14c0.54-3.78,0.811-7.64,0.811-11.57c0-4.69-0.391-9.29-1.15-13.77
			C422.96,257.98,423.7,262.42,423.7,267.03z"/>
		<path fill="#FFFFFF" d="M422.73,267.601c0,3.93-0.271,7.79-0.811,11.57c-2.7,8.97-8.31,16.67-15.74,22.01
			c-10.609-7.63-17.52-20.08-17.52-34.15c0-14.07,6.91-26.53,17.52-34.16c7.13,5.13,12.59,12.44,15.4,20.96
			C422.34,258.311,422.73,262.911,422.73,267.601z"/>
		<path fill="#FFFFFF" d="M406.18,232.871c-10.609,7.63-17.52,20.09-17.52,34.16c0,14.07,6.91,26.52,17.52,34.15
			c-6.899,4.96-15.37,7.891-24.52,7.891c-0.17,0-0.34,0-0.51,0c0-15.34-4.17-29.71-11.44-42.041
			c7.271-12.33,11.44-26.71,11.44-42.05c0.17,0,0.34,0,0.51,0C390.81,224.98,399.28,227.911,406.18,232.871z"/>
		<path fill="#FFFFFF" d="M381.15,224.98c0,15.34-4.17,29.72-11.44,42.05c-5.66-9.62-13.21-17.99-22.14-24.62
			C355.12,231.98,367.33,225.15,381.15,224.98z"/>
		<path fill="#FFFFFF" d="M369.71,267.03c7.271,12.33,11.44,26.7,11.44,42.041c-13.82-0.17-26.03-6.99-33.58-17.42
			C356.5,285.021,364.05,276.65,369.71,267.03z"/>
		<path fill="#FFFFFF" d="M347.57,242.411c8.93,6.63,16.479,15,22.14,24.62c-5.66,9.62-13.21,17.99-22.14,24.62
			c-4.04-5.59-6.75-12.21-7.63-19.4c0.21-1.71,0.319-3.45,0.319-5.22s-0.109-3.51-0.319-5.22
			C340.82,254.621,343.53,248,347.57,242.411z"/>
		<path fill="#FFFFFF" d="M340.26,350.201c0,0.109,0,0.21,0,0.319c-0.16,0.011-0.31,0.011-0.47,0.011
			c-15.25,0-29.54-4.11-41.81-11.301c9.91-5.79,18.51-13.579,25.25-22.819C333.56,324.06,340.26,336.35,340.26,350.201z"/>
		<path fill="#FFFFFF" d="M339.79,350.531c0.16,0,0.31,0,0.47-0.011c-0.06,8.16-2.45,15.771-6.54,22.2
			c-7.46-11.729-20.58-19.52-35.51-19.52c-14.93,0-28.05,7.79-35.51,19.52c-4.08-6.42-6.47-14.03-6.53-22.189
			c15.25,0,29.54-4.11,41.81-11.301C310.25,346.42,324.54,350.531,339.79,350.531z"/>
		<path fill="#FFFFFF" d="M339.94,261.811c0.21,1.71,0.319,3.45,0.319,5.22s-0.109,3.51-0.319,5.22c-0.221-1.71-0.33-3.45-0.33-5.22
			S339.72,263.521,339.94,261.811z"/>
		<path fill="#FFFFFF" d="M339.79,184.42c0,0.08,0,0.16,0,0.24c-15.25,0-29.54,4.11-41.81,11.3c-12.27-7.19-26.56-11.3-41.81-11.3
			c-0.16,0-0.31,0-0.47,0.01c0-0.08,0-0.17,0-0.25c0-9.3,3.01-17.89,8.12-24.85c7.61,10.8,20.17,17.85,34.39,17.85
			c13.93,0,26.28-6.77,33.92-17.2C336.95,167.061,339.79,175.411,339.79,184.42z"/>
		<path fill="#FFFFFF" d="M332.13,160.22c-7.64,10.43-19.99,17.2-33.92,17.2c-14.22,0-26.78-7.05-34.39-17.85
			c7.65-10.42,20-17.19,33.92-17.19C311.95,142.38,324.52,149.43,332.13,160.22z"/>
		<path fill="#FFFFFF" d="M298.21,353.201c14.93,0,28.05,7.79,35.51,19.52c-6.39,10.061-16.939,17.21-29.229,19.061
			c-2.07,0.149-4.17,0.229-6.28,0.229c-2.11,0-4.21-0.08-6.28-0.229c-12.29-1.851-22.83-9-29.23-19.061
			C270.16,360.991,283.28,353.201,298.21,353.201z"/>
		<path fill="#FFFFFF" d="M339.79,184.661c-0.08,13.73-6.74,25.91-16.99,33.53c-6.68-8.98-15.12-16.57-24.82-22.23
			C310.25,188.771,324.54,184.661,339.79,184.661z"/>
		<path fill="#FFFFFF" d="M297.98,195.96c9.7,5.66,18.14,13.25,24.82,22.23c-4.939,3.66-10.71,6.28-16.979,7.49
			c-2.471-0.45-5.011-0.69-7.61-0.69c-2.77,0-5.47,0.27-8.08,0.78c-6.32-1.15-12.14-3.71-17.13-7.35
			C279.69,209.34,288.2,201.67,297.98,195.96z"/>
		<path fill="#FFFFFF" d="M323.23,316.411c-6.74,9.24-15.341,17.029-25.25,22.819c-9.83-5.739-18.38-13.46-25.09-22.6
			c5.47-4.13,11.98-6.96,19.07-8.02c2.04,0.3,4.12,0.46,6.25,0.46s4.21-0.16,6.25-0.46C311.42,309.651,317.82,312.39,323.23,316.411
			z"/>
		<path fill="#FFFFFF" d="M305.82,225.68c-1.23,0.24-2.48,0.43-3.74,0.56c-1.28-0.07-2.57-0.1-3.87-0.1c-1.51,0-3.02,0.04-4.51,0.12
			c-1.21-0.11-2.4-0.27-3.57-0.49c2.61-0.51,5.31-0.78,8.08-0.78C300.81,224.99,303.35,225.23,305.82,225.68z"/>
		<path fill="#FFFFFF" d="M298.21,226.141c1.3,0,2.59,0.03,3.87,0.1c-1.43,0.15-2.87,0.22-4.34,0.22c-1.36,0-2.71-0.06-4.04-0.2
			C295.19,226.18,296.7,226.141,298.21,226.141z"/>
		<path fill="#FFFFFF" d="M298.21,392.01c2.11,0,4.21-0.08,6.28-0.229c-2.05,0.3-4.141,0.46-6.28,0.46c-2.14,0-4.23-0.16-6.28-0.46
			C294,391.93,296.1,392.01,298.21,392.01z"/>
		<path fill="#FFFFFF" d="M298.21,308.151c2.13,0,4.21,0.159,6.25,0.46c-2.04,0.3-4.12,0.46-6.25,0.46s-4.21-0.16-6.25-0.46
			C294,308.31,296.08,308.151,298.21,308.151z"/>
		<path fill="#FFFFFF" d="M297.98,195.96c-9.78,5.71-18.29,13.38-24.98,22.46c-10.42-7.6-17.22-19.88-17.3-33.75
			c0.16-0.01,0.31-0.01,0.47-0.01C271.42,184.661,285.71,188.771,297.98,195.96z"/>
		<path fill="#FFFFFF" d="M272.89,316.63c6.71,9.14,15.26,16.86,25.09,22.6c-12.27,7.19-26.56,11.301-41.81,11.301
			c0-0.11,0-0.221,0-0.33C256.17,336.491,262.74,324.3,272.89,316.63z"/>
		<path fill="#FFFFFF" d="M257.18,260.26c0.42,2.38,0.64,4.84,0.64,7.34s-0.22,4.96-0.64,7.34c-0.22-2.42-0.33-4.87-0.33-7.34
			C256.85,265.13,256.96,262.68,257.18,260.26z"/>
		<path fill="#FFFFFF" d="M257.18,274.94c-0.04,0.23-0.08,0.46-0.13,0.69c-0.58-2.77-0.88-5.65-0.88-8.6c0-2.75,0.26-5.43,0.77-8.03
			c0.09,0.41,0.17,0.83,0.24,1.26c-0.22,2.42-0.33,4.87-0.33,7.34C256.85,270.07,256.96,272.521,257.18,274.94z"/>
		<path fill="#FFFFFF" d="M256.94,259c-0.51,2.6-0.77,5.28-0.77,8.03c0,2.95,0.3,5.83,0.88,8.6c-1.19,6.15-3.71,11.81-7.27,16.69
			c-9.33-6.73-17.21-15.34-23.06-25.29c5.74-9.75,13.42-18.22,22.51-24.89C252.96,247.03,255.64,252.76,256.94,259z"/>
		<path fill="#FFFFFF" d="M215.77,225.55c13.65,0,25.78,6.51,33.46,16.59c-9.09,6.67-16.77,15.14-22.51,24.89
			c-7.18-12.18-11.34-26.35-11.43-41.48C215.45,225.55,215.61,225.55,215.77,225.55z"/>
		<path fill="#FFFFFF" d="M249.78,292.32c-7.64,10.5-20.03,17.32-34.01,17.32c-0.16,0-0.32,0-0.48,0
			c-0.01-0.189-0.01-0.38-0.01-0.569c0-15.34,4.17-29.71,11.44-42.041C232.57,276.98,240.45,285.59,249.78,292.32z"/>
		<path fill="#FFFFFF" d="M215.29,225.55c0.09,15.13,4.25,29.3,11.43,41.48c-7.27,12.33-11.44,26.7-11.44,42.041
			c0,0.189,0,0.38,0.01,0.569c-9.32-0.109-17.9-3.239-24.83-8.46c10.17-7.68,16.74-19.86,16.74-33.58
			c0-13.72-6.57-25.91-16.74-33.58C197.39,228.791,205.97,225.661,215.29,225.55z"/>
		<path fill="#FFFFFF" d="M190.46,234.021c10.17,7.67,16.74,19.86,16.74,33.58c0,13.72-6.57,25.9-16.74,33.58
			c-9.89-7.48-16.38-19.22-16.72-32.49c-0.01-0.37-0.01-0.73-0.01-1.09C173.73,253.88,180.3,241.69,190.46,234.021z"/>
	</g>
	<g>
		<path fill="none" stroke="#FFFFFF" stroke-width="7" stroke-miterlimit="10" d="M263.82,159.57c-1.73-2.46-3.2-5.1-4.37-7.91
			c-2.11-5-3.28-10.51-3.28-16.28c0-23.22,18.82-42.05,42.04-42.05s42.05,18.83,42.05,42.05c0,5.77-1.17,11.28-3.279,16.28
			c-1.28,3.06-2.91,5.92-4.851,8.56"/>
		<path fill="none" stroke="#FFFFFF" stroke-width="7" stroke-miterlimit="10" d="M333.72,372.72c1.8,2.82,3.261,5.87,4.351,9.101
			c1.42,4.21,2.189,8.729,2.189,13.42c0,23.22-18.83,42.05-42.05,42.05s-42.04-18.83-42.04-42.05c0-4.69,0.77-9.21,2.19-13.42
			c1.09-3.23,2.55-6.28,4.34-9.101"/>
		<path fill="none" stroke="#FFFFFF" stroke-width="7" stroke-miterlimit="10" d="M406.18,232.871c2.17-1.56,4.49-2.92,6.94-4.04
			c5.35-2.47,11.3-3.85,17.58-3.85c23.22,0,42.05,18.83,42.05,42.05c0,23.22-18.83,42.041-42.05,42.041
			c-6.09,0-11.88-1.301-17.101-3.62c-2.63-1.181-5.109-2.61-7.42-4.271"/>
		<path fill="none" stroke="#FFFFFF" stroke-width="7" stroke-miterlimit="10" d="M190.46,301.18c-2.44,1.83-5.07,3.41-7.88,4.69
			c-5.31,2.42-11.21,3.77-17.43,3.77c-23.22,0-42.04-18.82-42.04-42.04c0-23.22,18.82-42.05,42.04-42.05
			c6.22,0,12.12,1.35,17.43,3.78c2.81,1.28,5.44,2.85,7.88,4.69"/>
		<path fill="none" stroke="#FFFFFF" stroke-width="7" stroke-miterlimit="10" d="M256.94,259c0.21-1.09,0.46-2.16,0.76-3.22
			c3.69-13.34,13.8-24.02,26.8-28.5c1.82-0.63,3.7-1.14,5.63-1.51c2.61-0.51,5.31-0.78,8.08-0.78c2.6,0,5.14,0.24,7.61,0.69
			c2.09,0.38,4.13,0.92,6.1,1.6c12.021,4.14,21.57,13.57,25.86,25.51c1.04,2.87,1.77,5.89,2.16,9.02"/>
		<path fill="none" stroke="#FFFFFF" stroke-width="7" stroke-miterlimit="10" d="M291.96,308.611c-2.57-0.391-5.07-1-7.46-1.83
			c-13.35-4.601-23.66-15.74-27.09-29.59c-0.13-0.51-0.25-1.03-0.36-1.56"/>
		<path fill="none" stroke="#FFFFFF" stroke-width="7" stroke-miterlimit="10" d="M339.94,272.25c-0.341,2.74-0.94,5.39-1.78,7.93
			c-4.101,12.46-13.86,22.34-26.24,26.601c-2.39,0.83-4.89,1.439-7.46,1.83"/>
		<path fill="none" stroke="#FFFFFF" stroke-width="7" stroke-miterlimit="10" d="M421.58,253.831c1.38,4.15,2.12,8.59,2.12,13.2
			c0,4.22-0.62,8.3-1.78,12.14c-2.7,8.97-8.31,16.67-15.74,22.01c-6.899,4.96-15.37,7.891-24.52,7.891c-0.17,0-0.34,0-0.51,0
			c-13.82-0.17-26.03-6.99-33.58-17.42c-4.04-5.59-6.75-12.21-7.63-19.4c-0.221-1.71-0.33-3.45-0.33-5.22s0.109-3.51,0.33-5.22
			c0.88-7.19,3.59-13.81,7.63-19.4c7.55-10.43,19.76-17.26,33.58-17.43c0.17,0,0.34,0,0.51,0c9.149,0,17.62,2.93,24.52,7.89
			C413.31,238,418.77,245.311,421.58,253.831z"/>
		<path fill="none" stroke="#FFFFFF" stroke-width="7" stroke-miterlimit="10" d="M257.18,260.26c0.42,2.38,0.64,4.84,0.64,7.34
			s-0.22,4.96-0.64,7.34c-0.04,0.23-0.08,0.46-0.13,0.69c-1.19,6.15-3.71,11.81-7.27,16.69c-7.64,10.5-20.03,17.32-34.01,17.32
			c-0.16,0-0.32,0-0.48,0c-9.32-0.109-17.9-3.239-24.83-8.46c-9.89-7.48-16.38-19.22-16.72-32.49c-0.01-0.37-0.01-0.73-0.01-1.09
			c0-13.72,6.57-25.91,16.73-33.58c6.93-5.23,15.51-8.36,24.83-8.47c0.16,0,0.32,0,0.48,0c13.65,0,25.78,6.51,33.46,16.59
			c3.73,4.89,6.41,10.62,7.71,16.86C257.03,259.411,257.11,259.831,257.18,260.26z"/>
		<path fill="none" stroke="#FFFFFF" stroke-width="7" stroke-miterlimit="10" d="M323.23,316.411
			c10.329,7.649,17.029,19.939,17.029,33.79c0,0.109,0,0.21,0,0.319c-0.06,8.16-2.45,15.771-6.54,22.2
			c-6.39,10.061-16.939,17.21-29.229,19.061c-2.05,0.3-4.141,0.46-6.28,0.46c-2.14,0-4.23-0.16-6.28-0.46
			c-12.29-1.851-22.83-9-29.23-19.061c-4.08-6.42-6.47-14.03-6.53-22.189c0-0.11,0-0.221,0-0.33c0-13.71,6.57-25.9,16.72-33.57
			c5.47-4.13,11.98-6.96,19.07-8.02c2.04-0.301,4.12-0.46,6.25-0.46s4.21,0.159,6.25,0.46
			C311.42,309.651,317.82,312.39,323.23,316.411z"/>
		<path fill="none" stroke="#FFFFFF" stroke-width="7" stroke-miterlimit="10" d="M332.13,160.22c4.82,6.84,7.66,15.19,7.66,24.2
			c0,0.08,0,0.16,0,0.24c-0.08,13.73-6.74,25.91-16.99,33.53c-4.939,3.66-10.71,6.28-16.979,7.49c-1.23,0.24-2.48,0.43-3.74,0.56
			c-1.43,0.15-2.87,0.22-4.34,0.22c-1.36,0-2.71-0.06-4.04-0.2c-1.21-0.11-2.4-0.27-3.57-0.49c-6.32-1.15-12.14-3.71-17.13-7.35
			c-10.42-7.6-17.22-19.88-17.3-33.75c0-0.08,0-0.17,0-0.25c0-9.3,3.01-17.89,8.12-24.85c7.65-10.42,20-17.19,33.92-17.19
			C311.95,142.38,324.52,149.43,332.13,160.22z"/>
		<path fill="none" stroke="#FFFFFF" stroke-width="7" stroke-miterlimit="10" d="M381.15,224.98c0,15.34-4.17,29.72-11.44,42.05
			c-5.66,9.62-13.21,17.99-22.14,24.62c-4.74,3.51-9.87,6.53-15.311,8.99c-6.39,2.87-13.21,4.971-20.34,6.141
			c-4.46,0.75-9.04,1.14-13.71,1.14s-9.25-0.39-13.71-1.14c-7.35-1.21-14.36-3.4-20.92-6.42c-4.87-2.24-9.49-4.94-13.8-8.041
			c-9.33-6.73-17.21-15.34-23.06-25.29c-7.18-12.18-11.34-26.35-11.43-41.48c-0.01-0.19-0.01-0.38-0.01-0.57
			c0-11.74,2.44-22.92,6.85-33.04c7.51-17.29,20.75-31.51,37.32-40.28c11.44-6.07,24.46-9.53,38.29-9.6
			c0.16-0.01,0.31-0.01,0.47-0.01c14.01,0,27.2,3.47,38.771,9.61c16.659,8.81,29.949,23.14,37.439,40.56
			C378.75,202.271,381.15,213.34,381.15,224.98z"/>
		<path fill="none" stroke="#FFFFFF" stroke-width="7" stroke-miterlimit="10" d="M381.15,309.071
			c0,12.189-2.631,23.76-7.341,34.189c-7.439,16.391-20.04,29.95-35.739,38.561c-10.101,5.55-21.471,9.05-33.58,9.96
			c-2.07,0.149-4.17,0.229-6.28,0.229c-2.11,0-4.21-0.08-6.28-0.229c-12.1-0.91-23.47-4.41-33.57-9.96
			c-15.62-8.57-28.18-22.03-35.62-38.311c-4.72-10.33-7.38-21.79-7.45-33.87c-0.01-0.189-0.01-0.38-0.01-0.569
			c0-15.34,4.17-29.71,11.44-42.041c5.74-9.75,13.42-18.22,22.51-24.89c4.65-3.4,9.66-6.34,14.97-8.73
			c6.38-2.87,13.19-4.96,20.3-6.13c3.01-0.51,6.09-0.85,9.2-1.02c1.49-0.08,3-0.12,4.51-0.12c1.3,0,2.59,0.03,3.87,0.1
			c3.34,0.14,6.62,0.49,9.84,1.04c6.9,1.13,13.51,3.13,19.72,5.87c5.67,2.5,11.011,5.62,15.931,9.26
			c8.93,6.63,16.479,15,22.14,24.62C376.98,279.36,381.15,293.73,381.15,309.071z"/>
		<path fill="none" stroke="#FFFFFF" stroke-width="7" stroke-miterlimit="10" d="M421.58,253.831c0.76,4.48,1.15,9.08,1.15,13.77
			c0,3.93-0.271,7.79-0.811,11.57c-1.3,9.35-4.16,18.2-8.32,26.28c-8.569,16.68-22.63,30.08-39.79,37.81
			c-10.25,4.61-21.6,7.2-33.55,7.26c-0.16,0.011-0.31,0.011-0.47,0.011c-15.25,0-29.54-4.11-41.81-11.301
			c-9.83-5.739-18.38-13.46-25.09-22.6c-3.69-5.02-6.82-10.479-9.31-16.27c-3.13-7.25-5.24-15.03-6.17-23.17
			c-0.1-0.74-0.17-1.5-0.23-2.25c-0.22-2.42-0.33-4.87-0.33-7.34c0-2.47,0.11-4.92,0.33-7.34c0.12-1.51,0.29-3,0.52-4.48
			c1.11-7.87,3.33-15.38,6.5-22.37c2.41-5.32,5.37-10.34,8.8-14.99c6.69-9.08,15.2-16.75,24.98-22.46
			c12.27-7.19,26.56-11.3,41.81-11.3c12.36,0,24.09,2.7,34.63,7.56c16.57,7.62,30.2,20.55,38.7,36.61
			C417.2,236.521,420.1,244.94,421.58,253.831z"/>
		<path fill="none" stroke="#FFFFFF" stroke-width="7" stroke-miterlimit="10" d="M337.78,252.791c0.88,4.8,1.33,9.75,1.33,14.81
			c0,4.28-0.32,8.48-0.95,12.58c-1.09,7.16-3.09,14.02-5.9,20.46c-2.43,5.61-5.47,10.891-9.029,15.771
			c-6.74,9.24-15.341,17.029-25.25,22.819c-12.27,7.19-26.56,11.301-41.81,11.301c-11.89,0-23.2-2.5-33.43-7.021
			c-17.29-7.62-31.48-20.96-40.16-37.64c-5.81-11.141-9.17-23.77-9.33-37.17c-0.02-0.36-0.02-0.73-0.02-1.1
			c0-13.8,3.38-26.82,9.35-38.27c8.58-16.48,22.54-29.72,39.55-37.39c10.25-4.62,21.61-7.21,33.57-7.27
			c0.16-0.01,0.31-0.01,0.47-0.01c15.25,0,29.54,4.11,41.81,11.3c9.7,5.66,18.14,13.25,24.82,22.23c3.44,4.64,6.41,9.65,8.84,14.96
			C334.46,239.32,336.55,245.911,337.78,252.791z"/>
	</g>
</g>
<g>
	<g>
		<path fill-rule="evenodd" clip-rule="evenodd" fill="#FFFFFF" d="M162.283,84.556c-1.74,0.176-44.12,8.195-51.679,59.035
			C128.425,131.537,147.598,113.716,162.283,84.556z"/>
		<path fill-rule="evenodd" clip-rule="evenodd" fill="#FFFFFF" d="M116.822,99.472c-10.209,24.948-11.102,49.047-16.029,69.509
			c6.667-10.253,11.886-21.203,20.514-26.74c17.379-11.153,27.632-24.939,27.632-24.939c1.342,2.234,0.45,26.732-26.29,45.012
			c-19.305,13.194-31.668,33.011-31.668,33.011c0-34.362-5.325-27.235-3.532-46.408C90.99,111.031,116.822,99.472,116.822,99.472z"
			/>
		<path fill-rule="evenodd" clip-rule="evenodd" fill="#FFFFFF" d="M83.413,134.671c0,0-2.914,30.441-1.792,41.03
			c2.684,25.398,1.342,49.895,1.342,49.895S91.83,201.549,99,192.188c7.171-9.361,26.335-24.947,26.335-24.947
			s-4.027,24.551-20.506,45.011c-21.813,27.076-24.108,50.337-24.108,50.337s-14.687-32.516-16.029-69.059
			C63.235,153.871,83.413,134.671,83.413,134.671z"/>
		<path fill-rule="evenodd" clip-rule="evenodd" fill="#FFFFFF" d="M52.196,197.964c-1.749,8.91-6.677,32.56,0.892,57.057
			c7.568,24.498,19.172,28.533,36.993,61.994c-0.892-12.495-1.183-17.776,4.486-30.325c16.929-37.443,13.344-69.112,13.344-69.112
			s-16.444,25.637-19.172,34.759c-6.667,22.308-4.875,39.236-4.875,39.236s-9.811-34.361-13.396-46.362
			C66.882,233.217,57.574,220.271,52.196,197.964z"/>
		<path fill-rule="evenodd" clip-rule="evenodd" fill="#FFFFFF" d="M53.088,275.536c0,0,4.353,40.781,21.416,62.391
			c15.136,19.172,28.082,22.758,42.769,39.687c0.45,0-2.641-16.487-2.19-26.739c0.45-10.262,3.117-28.984,1.74-43.22
			c-2.633-27.235-9.803-43.722-9.803-43.722s-6.226,33.858-6.226,48.156c0,14.288,4.927,39.678,4.927,39.678
			s-15.64-28.083-24.099-36.993C73.16,305.861,53.088,275.536,53.088,275.536z"/>
		<path fill-rule="evenodd" clip-rule="evenodd" fill="#FFFFFF" d="M69.169,342.404c0,0,10.386,46.954,32.074,62.391
			c26.281,18.723,58.85,25.841,58.85,25.841c-6.676-21.805-8.018-45.454-12.045-54.815c-7.763-18.015-24.498-47.705-24.498-47.705
			s-4.486,31.669,3.974,53.084c5.811,14.695,13.397,28.975,13.397,28.975s-28.524-23.658-36.993-30.325
			C82.963,363.369,69.169,342.404,69.169,342.404z"/>
		<path fill-rule="evenodd" clip-rule="evenodd" fill="#FFFFFF" d="M154.265,377.163c0,0,4.998,30.617,10.261,40.579
			c12.947,24.497,28.083,32.065,28.083,32.065s-27.959-11.852-39.634-14.687C118.164,426.652,99,414.156,99,414.156
			c2.685,6.677,23.129,32.657,51.733,46.354c21.405,10.261,49.047-4.875,66.427-4.875c-5.387-4.928-9.361-4.486-25.893-33.911
			C174.178,391.319,154.265,377.163,154.265,377.163z"/>
		<path fill-rule="evenodd" clip-rule="evenodd" fill="#FFFFFF" d="M433.352,84.556c1.739,0.176,44.11,8.195,51.679,59.035
			C467.209,131.537,448.037,113.716,433.352,84.556z"/>
		<path fill-rule="evenodd" clip-rule="evenodd" fill="#FFFFFF" d="M478.804,99.472c10.21,24.948,11.11,49.047,16.038,69.509
			c-6.677-10.253-11.887-21.203-20.515-26.74c-17.379-11.153-27.632-24.939-27.632-24.939c-1.352,2.234-0.45,26.732,26.289,45.012
			c19.306,13.194,31.668,33.011,31.668,33.011c0-34.362,5.325-27.235,3.533-46.408C504.645,111.031,478.804,99.472,478.804,99.472z"
			/>
		<path fill-rule="evenodd" clip-rule="evenodd" fill="#FFFFFF" d="M512.222,134.671c0,0,2.913,30.441,1.792,41.03
			c-2.693,25.398-1.352,49.895-1.352,49.895s-8.857-24.046-16.028-33.408c-7.17-9.361-26.343-24.947-26.343-24.947
			s4.036,24.551,20.515,45.011c21.813,27.076,24.1,50.337,24.1,50.337s14.687-32.516,16.038-69.059
			C532.399,153.871,512.222,134.671,512.222,134.671z"/>
		<path fill-rule="evenodd" clip-rule="evenodd" fill="#FFFFFF" d="M543.438,197.964c1.74,8.91,6.667,32.56-0.9,57.057
			c-7.568,24.498-19.163,28.533-36.993,61.994c0.9-12.495,1.191-17.776-4.478-30.325c-16.929-37.443-13.344-69.112-13.344-69.112
			s16.443,25.637,19.163,34.759c6.677,22.308,4.885,39.236,4.885,39.236s9.811-34.361,13.396-46.362
			C528.753,233.217,538.061,220.271,543.438,197.964z"/>
		<path fill-rule="evenodd" clip-rule="evenodd" fill="#FFFFFF" d="M542.538,275.536c0,0-4.346,40.781-21.406,62.391
			c-15.137,19.172-28.083,22.758-42.77,39.687c-0.45,0,2.632-16.487,2.19-26.739c-0.45-10.262-3.126-28.984-1.749-43.22
			c2.641-27.235,9.812-43.722,9.812-43.722s6.227,33.858,6.227,48.156c0,14.288-4.928,39.678-4.928,39.678
			s15.631-28.083,24.1-36.993C522.475,305.861,542.538,275.536,542.538,275.536z"/>
		<path fill-rule="evenodd" clip-rule="evenodd" fill="#FFFFFF" d="M526.457,342.404c0,0-10.386,46.954-32.065,62.391
			c-26.29,18.723-58.85,25.841-58.85,25.841c6.667-21.805,8.009-45.454,12.045-54.815c7.763-18.015,24.497-47.705,24.497-47.705
			s4.486,31.669-3.982,53.084c-5.811,14.695-13.397,28.975-13.397,28.975s28.524-23.658,37.002-30.325
			C512.662,363.369,526.457,342.404,526.457,342.404z"/>
		<path fill-rule="evenodd" clip-rule="evenodd" fill="#FFFFFF" d="M441.36,377.163c0,0-4.988,30.617-10.253,40.579
			c-12.945,24.497-28.082,32.065-28.082,32.065s27.95-11.852,39.634-14.687c34.803-8.469,53.975-20.965,53.975-20.965
			c-2.692,6.677-23.128,32.657-51.731,46.354c-21.415,10.261-49.048-4.875-66.428-4.875c5.378-4.928,9.361-4.486,25.894-33.911
			C421.456,391.319,441.36,377.163,441.36,377.163z"/>
		<path fill-rule="evenodd" clip-rule="evenodd" fill="#FFFFFF" d="M297.372,467.637c0,0-23.155-8.47-45.913-8.92
			c-22.749-0.441-60.598,11.533-73.544,13.396c-15.578,2.243-40.128-3.135-40.128-3.135s13.397,20.515,60.651,20.965
			c37.444,0.353,65.076-20.515,89.123-20.073c-39.634,15.587-53.481,39.236-53.481,39.236l11.163,2.693
			c0,0,31.165-36.551,52.58-38.345c21.407,1.794,52.572,38.345,52.572,38.345l11.153-2.693c0,0-13.839-23.649-53.473-39.236
			c24.047-0.441,51.679,20.426,89.122,20.073c47.255-0.45,60.652-20.965,60.652-20.965s-24.551,5.378-40.137,3.135
			c-12.938-1.863-50.787-13.838-73.545-13.396C321.419,459.167,297.372,467.637,297.372,467.637z"/>
	</g>
</g>
</svg>
